<svg width="32" height="32" viewBox="0 0 32 32" fill="none" xmlns="http://www.w3.org/2000/svg">
<path fill-rule="evenodd" clip-rule="evenodd" d="M10.7385 8.57846L13.2161 8.83046C13.4841 8.53206 13.7665 8.23526 14.0641 7.93766C19.1617 2.84006 27.1928 1.90966 29.3232 2.62006C30.0336 4.75046 29.1033 12.7817 24.0057 17.8793C23.7145 18.1713 23.4225 18.4473 23.1297 18.7113L23.3833 21.2849C23.5473 22.9513 22.8305 24.4649 21.4368 25.3945L17.1217 28.2713C16.6945 28.5561 16.1873 28.5905 15.7249 28.3665C15.2625 28.1417 14.9761 27.7201 14.9369 27.2081L14.5841 22.6161C13.1073 22.5681 11.8257 22.0489 10.8609 21.0841C9.90245 20.1257 9.38325 18.8545 9.32965 17.3897L4.91125 17.1065C4.40165 17.0737 3.97845 16.7961 3.74645 16.3409C3.51445 15.8849 3.53765 15.3793 3.81205 14.9481L6.55925 10.6105C7.47605 9.16086 9.03125 8.40406 10.7385 8.57846ZM23.6425 8.30166C22.4657 7.12486 20.5585 7.12486 19.3816 8.30166C18.2049 9.47766 18.2049 11.3857 19.3816 12.5625C20.5585 13.7385 22.4657 13.7385 23.6425 12.5625C24.8176 11.3857 24.8176 9.47846 23.6425 8.30166ZM6.49285 19.7697L4.79605 21.4665L4.25045 22.0121C4.04405 22.2169 3.98565 22.5105 4.09765 22.7785C4.20885 23.0473 4.45685 23.2129 4.74805 23.2129H5.88885L4.91365 26.1377C4.82725 26.3969 4.89045 26.6649 5.08325 26.8585C5.27685 27.0513 5.54485 27.1145 5.80405 27.0273L8.72885 26.0529V27.1937C8.72885 27.4849 8.89525 27.7329 9.16325 27.8441C9.43125 27.9553 9.72485 27.8969 9.93045 27.6913L10.9369 26.6849L12.1721 25.4497C12.3505 25.2713 12.4177 25.0321 12.3585 24.7865C12.2993 24.5409 12.1297 24.3593 11.8897 24.2817C10.9009 23.9633 10.0113 23.4249 9.26405 22.6777C8.51605 21.9297 7.97765 21.0401 7.65925 20.0513C7.58165 19.8105 7.39925 19.6417 7.15445 19.5825C6.91045 19.5241 6.67045 19.5913 6.49285 19.7697Z" fill="white"/>
</svg>
