<svg width="200" height="60" xmlns="http://www.w3.org/2000/svg" viewBox="0 0 200 60">
  <!-- 미소핀 임시 로고 SVG -->
  <defs>
    <style>
      .logo-text { fill: #2C2C2C; }
      .logo-accent { fill: #9F988C; }
    </style>
  </defs>
  
  <!-- 둥근 사각형 배경 (겹친 형태) -->
  <g>
    <!-- 뒤쪽 프레임 -->
    <rect x="8" y="8" width="184" height="44" rx="12" ry="12" fill="none" stroke="#9F988C" stroke-width="2" opacity="0.3" />
    
    <!-- 앞쪽 프레임 -->
    <rect x="4" y="4" width="184" height="44" rx="12" ry="12" fill="none" stroke="#2C2C2C" stroke-width="2" />
    
    <!-- M 글자 -->
    <path class="logo-text" d="M 70 18 L 70 38 L 75 38 L 85 25 L 95 38 L 100 38 L 100 18 L 95 18 L 95 30 L 87 20 L 83 20 L 75 30 L 75 18 Z" />
    
    <!-- MISOPIN 텍스트 -->
    <text x="110" y="32" font-family="Arial, sans-serif" font-size="11" font-weight="500" class="logo-text">MISOPIN</text>
    
    <!-- 꽃/별 모양 장식 -->
    <g transform="translate(165, 18)">
      <circle cx="0" cy="0" r="1.5" class="logo-accent" />
      <path class="logo-accent" d="M 0,-5 Q -2,-2 0,0 Q 2,-2 0,-5 M 0,5 Q -2,2 0,0 Q 2,2 0,5 M -5,0 Q -2,-2 0,0 Q -2,2 -5,0 M 5,0 Q 2,-2 0,0 Q 2,2 5,0" />
    </g>
  </g>
</svg>